# xmcd
#
# Track frame offsets: 
#        150
#        14193
#        27168
#        39131
#        54905
#        68574
#        82476
#        103121
#        115502
#        128891
#        148273
#        161137
#        173883
#
# Disc length: 2489 seconds
#
# Revision: 2
# Processed by: cddbd v1.5.2PL0 Copyright (c) Steve Scherf et al.
# Submitted via: ExactAudioCopy v0.99pb5
#
DISCID=b209b70d
DTITLE=B:B. Country Painters - Driving Out
DYEAR=1900
DGENRE=Country
TTITLE0=Driving out to the Country
TTITLE1=Best year of my Life
TTITLE2=Turn back the time
TTITLE3=One twinkle with your eyes
TTITLE4=Just for a moment
TTITLE5=Cowboyboots and Rock 'n' Roll
TTITLE6=Somebody special
TTITLE7=Good Country Music
TTITLE8=Jackson
TTITLE9=Good morning, Love
TTITLE10=Stand by your man
TTITLE11=We've never been to Nashville
TTITLE12=Cotton fields
EXTD=Very good Country Band from Graz/Austria
EXTT0=
EXTT1=
EXTT2=
EXTT3=
EXTT4=
EXTT5=
EXTT6=
EXTT7=
EXTT8=
EXTT9=
EXTT10=
EXTT11=
EXTT12=
PLAYORDER=
